<svg width="189" height="32" viewBox="0 0 189 32" fill="none" xmlns="http://www.w3.org/2000/svg">
<path d="M42.4855 26.2076V5.90609H50.2736C52.2645 5.90609 53.8553 6.44746 55.0459 7.53021C56.2366 8.59362 56.8319 10.0147 56.8319 11.7935C56.8319 13.5723 56.2366 15.0031 55.0459 16.0858C53.8553 17.1492 52.2645 17.6809 50.2736 17.6809H45.1499V26.2076H42.4855ZM45.1499 15.3028H50.1857C51.3959 15.3028 52.3426 14.9934 53.0257 14.3747C53.7284 13.756 54.0798 12.8956 54.0798 11.7935C54.0798 10.6914 53.7284 9.83104 53.0257 9.21233C52.3426 8.57428 51.3959 8.25526 50.1857 8.25526H45.1499V15.3028Z" fill="white"/>
<path d="M71.0424 24.3224C69.6371 25.7339 67.8413 26.4396 65.6552 26.4396C63.4691 26.4396 61.6734 25.7339 60.268 24.3224C58.8626 22.8917 58.16 21.0839 58.16 18.899C58.16 16.7142 58.8626 14.9161 60.268 13.5046C61.6734 12.0739 63.4691 11.3585 65.6552 11.3585C67.8413 11.3585 69.6371 12.0739 71.0424 13.5046C72.4673 14.9161 73.1797 16.7142 73.1797 18.899C73.1797 21.0839 72.4673 22.8917 71.0424 24.3224ZM62.0833 22.7563C63.0006 23.7424 64.1913 24.2354 65.6552 24.2354C67.1191 24.2354 68.3098 23.7424 69.2272 22.7563C70.1446 21.7509 70.6033 20.4652 70.6033 18.899C70.6033 17.3329 70.1446 16.0568 69.2272 15.0708C68.3098 14.0654 67.1191 13.5626 65.6552 13.5626C64.1913 13.5626 63.0006 14.0654 62.0833 15.0708C61.1659 16.0568 60.7072 17.3329 60.7072 18.899C60.7072 20.4652 61.1659 21.7509 62.0833 22.7563Z" fill="white"/>
<path d="M79.2719 26.2076L74.7631 11.5905H77.3103L80.5016 22.7563L83.9565 11.5905H86.3573L89.8121 22.7563L92.9742 11.5905H95.58L91.0418 26.2076H88.6117L85.1569 15.0998L81.702 26.2076H79.2719Z" fill="white"/>
<path d="M111.331 18.232C111.331 18.638 111.311 19.015 111.272 19.3631H99.6197C99.6978 20.8325 100.166 22.0216 101.025 22.9303C101.903 23.8197 103.006 24.2644 104.333 24.2644C105.466 24.2644 106.402 24.0131 107.144 23.5104C107.886 23.0077 108.364 22.302 108.579 21.3932L110.921 21.9443C110.55 23.3557 109.779 24.4578 108.608 25.2505C107.457 26.0432 106.032 26.4396 104.333 26.4396C102.167 26.4396 100.42 25.7145 99.0927 24.2644C97.7849 22.8143 97.131 21.0259 97.131 18.899C97.131 16.7529 97.7751 14.9644 99.0634 13.5336C100.371 12.0835 102.108 11.3585 104.275 11.3585C106.402 11.3585 108.11 12.0255 109.399 13.3596C110.687 14.6744 111.331 16.2985 111.331 18.232ZM99.7661 17.3039H108.696C108.579 16.1438 108.13 15.2061 107.349 14.4907C106.568 13.7753 105.544 13.4176 104.275 13.4176C103.123 13.4176 102.147 13.7657 101.347 14.4617C100.547 15.1384 100.02 16.0858 99.7661 17.3039Z" fill="white"/>
<path d="M123.172 13.9977C122.626 13.7657 121.991 13.6497 121.269 13.6497C120.02 13.6497 118.995 14.249 118.195 15.4478C117.414 16.6272 117.024 18.3577 117.024 20.6392V26.2076H114.535V11.5905H117.024V14.5487C117.453 13.6207 118.097 12.8569 118.956 12.2576C119.815 11.6582 120.703 11.3585 121.62 11.3585C122.264 11.3585 122.83 11.4455 123.318 11.6195L123.172 13.9977Z" fill="white"/>
<path d="M125.743 26.2076V5.67407H128.232V26.2076H125.743Z" fill="white"/>
<path d="M144.295 24.3224C142.89 25.7339 141.094 26.4396 138.908 26.4396C136.722 26.4396 134.926 25.7339 133.521 24.3224C132.116 22.8917 131.413 21.0839 131.413 18.899C131.413 16.7142 132.116 14.9161 133.521 13.5046C134.926 12.0739 136.722 11.3585 138.908 11.3585C141.094 11.3585 142.89 12.0739 144.295 13.5046C145.72 14.9161 146.433 16.7142 146.433 18.899C146.433 21.0839 145.72 22.8917 144.295 24.3224ZM135.336 22.7563C136.254 23.7424 137.444 24.2354 138.908 24.2354C140.372 24.2354 141.563 23.7424 142.48 22.7563C143.398 21.7509 143.856 20.4652 143.856 18.899C143.856 17.3329 143.398 16.0568 142.48 15.0708C141.563 14.0654 140.372 13.5626 138.908 13.5626C137.444 13.5626 136.254 14.0654 135.336 15.0708C134.419 16.0568 133.96 17.3329 133.96 18.899C133.96 20.4652 134.419 21.7509 135.336 22.7563Z" fill="white"/>
<path d="M161.651 24.3224C160.245 25.7339 158.45 26.4396 156.264 26.4396C154.078 26.4396 152.282 25.7339 150.876 24.3224C149.471 22.8917 148.768 21.0839 148.768 18.899C148.768 16.7142 149.471 14.9161 150.876 13.5046C152.282 12.0739 154.078 11.3585 156.264 11.3585C158.45 11.3585 160.245 12.0739 161.651 13.5046C163.076 14.9161 163.788 16.7142 163.788 18.899C163.788 21.0839 163.076 22.8917 161.651 24.3224ZM152.692 22.7563C153.609 23.7424 154.8 24.2354 156.264 24.2354C157.728 24.2354 158.918 23.7424 159.836 22.7563C160.753 21.7509 161.212 20.4652 161.212 18.899C161.212 17.3329 160.753 16.0568 159.836 15.0708C158.918 14.0654 157.728 13.5626 156.264 13.5626C154.8 13.5626 153.609 14.0654 152.692 15.0708C151.774 16.0568 151.316 17.3329 151.316 18.899C151.316 20.4652 151.774 21.7509 152.692 22.7563Z" fill="white"/>
<path d="M166.973 26.2076V11.5905H169.462V14.3457C170.301 12.3542 171.784 11.3585 173.912 11.3585C175.122 11.3585 176.157 11.6292 177.015 12.1705C177.894 12.7119 178.46 13.466 178.713 14.4327C179.123 13.524 179.748 12.7893 180.587 12.2285C181.446 11.6485 182.412 11.3585 183.486 11.3585C185.067 11.3585 186.316 11.8129 187.233 12.7216C188.17 13.6303 188.639 14.8581 188.639 16.4049V26.2076H186.15V16.8979C186.15 15.8732 185.867 15.0611 185.301 14.4617C184.735 13.843 183.945 13.5336 182.93 13.5336C181.7 13.5336 180.743 14.0267 180.06 15.0128C179.377 15.9988 179.036 17.2846 179.036 18.87V26.2076H176.547V16.8979C176.547 15.8732 176.264 15.0611 175.698 14.4617C175.151 13.843 174.371 13.5336 173.356 13.5336C172.126 13.5336 171.169 14.0267 170.486 15.0128C169.803 15.9988 169.462 17.2846 169.462 18.87V26.2076H166.973Z" fill="white"/>
<g clip-path="url(#clip0_19_113)">
<path d="M19.5867 29.676C18.2595 29.6753 16.9646 29.2679 15.8771 28.5088C14.7896 27.7497 13.962 26.6757 13.5063 25.4319L8.89373 12.7914C8.59146 11.9927 8.45107 11.1422 8.48068 10.289C8.51029 9.43588 8.70932 8.59707 9.06623 7.82123C9.42315 7.04539 9.93084 6.34795 10.5599 5.76934C11.1889 5.19073 11.9268 4.74246 12.7308 4.4505C13.5348 4.15855 14.3888 4.02872 15.2434 4.06855C16.098 4.10837 16.9362 4.31706 17.7094 4.68251C18.4826 5.04796 19.1754 5.56291 19.7477 6.1975C20.32 6.8321 20.7603 7.57372 21.0432 8.37937L25.6544 21.0199C26.0094 21.9938 26.1241 23.0386 25.9887 24.0661C25.8533 25.0935 25.4719 26.0733 24.8766 26.9225C24.2814 27.7717 23.4899 28.4653 22.5691 28.9446C21.6483 29.4239 20.6253 29.6748 19.5867 29.676ZM14.9713 7.52435C14.4785 7.52596 13.9933 7.64561 13.5564 7.87323C13.1196 8.10086 12.7439 8.4298 12.461 8.8324C12.178 9.235 11.9961 9.6995 11.9305 10.1868C11.8648 10.6742 11.9174 11.1701 12.0838 11.633L16.695 24.275C16.9851 25.023 17.5577 25.6278 18.2896 25.9594C19.0216 26.291 19.8548 26.323 20.6101 26.0485C21.3655 25.7741 21.9829 25.215 22.3299 24.4915C22.6768 23.7679 22.7256 22.9374 22.4657 22.1783L17.8545 9.53634C17.6383 8.94627 17.2459 8.43651 16.7304 8.07576C16.2149 7.715 15.6009 7.52059 14.9713 7.5187V7.52435Z" fill="white"/>
<path d="M19.5754 29.6789C18.6326 29.6784 17.7015 29.4713 16.8477 29.0722L4.62901 23.3861C3.0952 22.6515 1.91355 21.343 1.34039 19.7446C0.767238 18.1462 0.848809 16.3867 1.56741 14.848C2.28601 13.3092 3.58368 12.1151 5.17892 11.5249C6.77415 10.9347 8.53829 10.9958 10.0886 11.6951L22.3074 17.3798C23.6398 18.0018 24.7199 19.0584 25.3695 20.3754C26.0191 21.6923 26.1994 23.1909 25.8806 24.6238C25.5619 26.0568 24.763 27.3384 23.616 28.2574C22.469 29.1764 21.0422 29.6778 19.5712 29.6789H19.5754ZM7.36659 14.4761C6.66467 14.4719 5.9825 14.7078 5.43367 15.1444C4.88484 15.5811 4.50247 16.1921 4.35022 16.8759C4.19796 17.5596 4.28502 18.2747 4.59689 18.9022C4.90876 19.5296 5.42663 20.0316 6.06426 20.3244L18.2816 26.0091C18.6482 26.1886 19.0471 26.2933 19.4548 26.3172C19.8626 26.341 20.271 26.2835 20.6561 26.148C21.0413 26.0124 21.3955 25.8016 21.698 25.5278C22.0005 25.254 22.2453 24.9227 22.418 24.5534C22.5906 24.1841 22.6877 23.7841 22.7036 23.3769C22.7194 22.9696 22.6537 22.5633 22.5103 22.1818C22.3669 21.8002 22.1486 21.451 21.8683 21.1546C21.588 20.8582 21.2512 20.6206 20.8778 20.4556L8.65902 14.7639C8.25452 14.5747 7.81332 14.4765 7.36659 14.4761Z" fill="white"/>
<path d="M27.1829 22.7229C26.2402 22.7217 25.3092 22.5147 24.4553 22.1162L12.2365 16.4301C10.6828 15.7072 9.48051 14.3979 8.89419 12.7905C8.30787 11.183 8.38552 9.40902 9.11008 7.85869C9.83463 6.30837 11.1467 5.10874 12.7577 4.5237C14.3687 3.93867 16.1466 4.01616 17.7004 4.73912L29.9191 10.4238C31.2515 11.0458 32.3317 12.1024 32.9813 13.4194C33.6309 14.7363 33.8112 16.2349 33.4924 17.6678C33.1736 19.1007 32.3748 20.3824 31.2278 21.3014C30.0807 22.2204 28.654 22.7218 27.1829 22.7229ZM13.6718 13.3613L25.8891 19.046C26.2558 19.2255 26.6546 19.3303 27.0623 19.3541C27.4701 19.378 27.8785 19.3204 28.2636 19.1849C28.6488 19.0493 29.003 18.8385 29.3055 18.5647C29.6081 18.2909 29.8528 17.9596 30.0255 17.5903C30.1981 17.221 30.2952 16.821 30.3111 16.4138C30.3269 16.0066 30.2612 15.6003 30.1178 15.2187C29.9744 14.8371 29.7561 14.4879 29.4758 14.1915C29.1955 13.8951 28.8587 13.6575 28.4853 13.4926L16.2665 7.8079C15.5285 7.46457 14.684 7.42784 13.9188 7.70581C13.1536 7.98377 12.5304 8.55365 12.1863 9.29009C11.8422 10.0265 11.8054 10.8692 12.084 11.6327C12.3626 12.3962 12.9337 13.018 13.6718 13.3613Z" fill="white"/>
</g>
<defs>
<clipPath id="clip0_19_113">
<rect width="32.7534" height="27.5556" fill="white" transform="translate(0.897339 2.12329)"/>
</clipPath>
</defs>
</svg>
